<svg xmlns="http://www.w3.org/2000/svg" viewBox="0 0 620 620" width="620" height="620">
  <rect width="620" height="620" rx="40" ry="40" fill="#001E40"/>
  <g transform="translate(-122.1,77.5)">
    <path d="M460.1,385.8 C452.4,384.2 444.3,379.7 438.7,374.0 C435.6,370.9 431.8,365.4 429.7,361.0 C428.1,357.7 427.6,356.0 426.0,349.8 C423.9,341.5 423.5,337.8 423.9,333.3 C424.3,329.8 425.2,327.0 427.2,323.1 C429.6,318.5 430.9,316.6 434.2,313.3 C437.8,309.7 440.7,307.6 445.5,305.4 C452.2,302.2 456.6,301.1 463.5,301.1 C472.5,301.1 479.4,303.3 487.1,308.5 C490.1,310.5 492.0,312.2 492.0,312.7 C492.0,313.2 488.4,317.2 488.0,317.2 C487.8,317.2 486.4,316.3 484.9,315.2 C479.6,311.4 473.1,308.8 467.2,308.2 C456.6,307.2 446.8,310.7 438.0,318.7 C434.9,321.5 434.3,322.1 433.0,324.7 C430.7,329.4 430.0,334.9 431.3,339.1 C432.0,341.4 432.4,341.7 433.0,340.5 C433.5,339.2 434.0,339.5 433.7,340.9 C433.5,342.2 433.5,344.3 433.7,351.1 L433.9,355.6 L435.7,359.2 C439.2,366.6 444.6,372.0 452.4,375.9 C457.3,378.3 463.8,379.9 468.0,379.6 C471.0,379.4 476.0,378.1 478.7,376.8 C482.2,375.1 486.3,372.0 490.0,368.1 C496.8,360.9 499.5,354.3 499.5,344.2 C499.5,338.8 499.1,335.6 497.8,332.3 C497.2,330.8 496.9,329.7 497.0,329.3 C497.3,328.3 499.1,325.6 500.2,324.4 C501.3,323.3 501.5,323.5 503.0,327.1 C505.5,333.2 506.5,337.8 506.5,343.8 C506.6,349.1 505.9,353.1 504.2,357.7 C502.5,362.4 498.8,368.5 495.4,372.3 C492.1,376.0 485.0,381.2 479.6,383.8 C474.1,386.6 467.2,387.2 460.1,385.8 Z M520.0,386.1 C515.8,385.4 511.2,383.9 508.2,382.4 C505.4,380.9 500.8,378.0 498.9,376.4 C498.1,375.7 498.0,375.6 498.4,374.8 C499.0,373.7 501.9,370.5 502.3,370.5 C502.5,370.5 503.4,371.0 504.2,371.7 C505.8,373.1 509.6,375.6 511.2,376.4 C512.7,377.1 518.4,378.7 521.7,379.3 C530.3,380.8 540.0,378.5 547.5,373.3 C550.6,371.1 554.8,366.7 556.7,363.8 C561.0,357.1 563.2,348.1 562.4,340.4 C561.4,331.4 558.2,324.6 552.1,318.5 C545.5,311.9 536.6,308.2 527.1,308.2 C514.3,308.2 503.0,314.3 495.9,324.9 C493.3,328.8 492.1,331.4 491.0,335.8 C490.1,339.1 490.0,340.0 490.0,344.2 C490.0,349.0 490.6,352.3 492.2,356.5 L492.8,358.0 L491.8,360.0 C490.5,362.5 489.0,364.2 488.5,363.9 C487.9,363.5 486.3,360.0 485.1,356.6 C482.8,349.6 482.7,339.3 484.8,332.5 C485.9,329.2 488.2,323.9 489.3,322.2 C499.4,307.3 514.7,299.6 530.9,301.1 C535.4,301.5 538.0,302.2 542.7,304.1 C546.9,305.9 549.4,307.3 553.2,310.3 C560.8,316.3 566.5,325.4 568.7,335.3 C569.5,339.1 569.5,348.4 568.6,352.3 C567.4,358.4 565.0,363.8 561.1,369.2 C558.3,373.2 555.0,376.4 550.9,379.2 C545.8,382.5 542.5,384.1 536.8,385.6 C533.9,386.5 523.6,386.7 520.0,386.1 Z M302.9,371.8 C298.3,369.6 297.4,364.0 300.9,360.5 C303.3,358.1 306.3,357.6 309.3,359.2 C312.5,360.8 313.7,364.9 312.1,368.6 C311.4,370.3 310.0,371.5 308.0,372.3 C306.0,372.9 304.9,372.8 302.9,371.8 Z M528.4,370.7 C528.2,370.5 528.0,369.1 527.9,367.7 L527.8,365.2 L525.4,364.6 C520.9,363.6 518.8,362.5 516.2,359.9 C514.2,357.8 514.2,357.5 516.1,355.6 L517.7,354.0 L519.3,355.7 C520.9,357.4 524.4,359.3 526.6,359.8 L527.6,360.0 L527.7,353.1 C527.8,349.3 527.8,346.1 527.7,345.8 C527.7,345.6 526.7,345.2 525.5,344.8 C520.3,343.2 517.6,340.9 516.4,337.0 C515.7,335.0 515.7,334.5 516.0,332.7 C516.5,329.6 518.0,326.9 519.9,325.5 C521.5,324.2 524.2,323.0 526.2,322.7 L527.5,322.5 L527.6,320.2 C527.7,317.7 528.2,316.9 529.6,316.9 C531.2,316.9 531.7,317.6 531.8,320.1 L532.0,322.5 L534.4,322.9 C538.5,323.6 543.1,326.2 543.1,327.8 C543.1,329.1 541.2,331.6 540.3,331.6 C540.0,331.6 539.1,331.0 538.2,330.3 C536.2,328.8 534.1,327.8 532.8,327.8 L531.8,327.8 L531.9,334.2 L532.0,340.7 L534.6,341.6 C539.3,343.1 541.9,345.1 543.5,348.1 C544.4,350.0 544.4,350.2 544.3,353.1 C544.2,355.7 544.0,356.5 543.3,357.9 C541.4,361.5 538.1,364.0 534.0,364.8 L532.0,365.2 L531.8,367.7 C531.6,369.1 531.4,370.4 531.2,370.7 C530.7,371.2 528.8,371.3 528.4,370.7 Z M324.3,370.0 C322.1,369.2 320.8,367.6 320.8,365.5 C320.8,363.0 322.1,361.7 327.6,358.8 C336.4,354.3 342.6,349.4 348.3,342.2 C351.6,338.2 355.3,332.4 358.0,327.1 C360.6,321.9 362.5,317.1 367.6,303.2 C373.5,287.1 374.6,285.0 380.7,279.5 C387.5,273.6 393.3,270.3 414.3,260.6 C432.4,252.3 441.1,247.7 448.2,243.0 C457.0,237.1 463.2,231.2 468.4,223.8 C470.4,221.0 472.1,218.4 472.3,217.9 C472.8,216.8 472.6,216.1 471.7,216.1 C470.8,216.1 471.0,215.0 472.7,209.9 C480.8,186.8 476.8,163.2 462.5,149.8 C461.2,148.5 459.1,146.6 457.9,145.4 C455.6,143.2 451.5,140.7 447.7,139.2 C442.5,137.1 433.3,135.8 426.8,136.3 C415.5,137.0 404.5,140.9 391.1,148.9 C388.3,150.5 378.6,157.6 377.7,158.6 C377.6,158.7 376.5,159.6 375.3,160.7 C374.1,161.7 371.1,164.4 368.8,166.5 C359.5,175.0 346.8,186.0 342.7,189.0 C328.9,199.1 317.2,205.4 305.1,209.3 C298.9,211.3 295.4,212.0 289.2,212.7 C280.4,213.7 272.6,213.1 263.0,210.8 C257.2,209.4 253.4,208.0 248.4,205.5 C241.9,202.3 238.5,200.1 236.6,197.8 C235.8,196.9 235.4,194.7 235.8,193.3 C236.5,191.1 238.1,191.1 242.7,193.4 C250.7,197.4 256.3,199.4 264.0,200.9 C271.9,202.6 282.8,202.7 290.2,201.2 C305.6,198.0 323.7,188.4 341.1,174.3 C345.7,170.5 352.1,164.8 363.3,154.3 C367.9,150.0 373.2,145.1 375.2,143.2 C377.2,141.4 380.7,138.1 383.0,136.0 C392.6,127.0 394.0,125.8 401.6,119.7 C406.3,116.0 409.1,114.0 415.6,109.9 C424.8,104.2 432.4,100.5 442.8,96.9 C448.0,95.1 452.3,94.0 456.3,93.3 C466.5,91.5 478.6,91.2 486.4,92.4 C503.7,95.2 520.8,102.4 539.9,115.1 C546.4,119.4 550.4,121.9 551.3,122.2 C551.6,122.3 552.8,123.0 553.9,123.7 C556.4,125.3 562.0,127.9 565.0,128.9 C571.1,130.9 577.4,130.8 583.9,128.4 C589.4,126.4 595.2,122.7 595.4,121.0 C595.4,120.5 595.0,119.5 594.1,118.1 C590.0,112.0 587.6,107.3 585.6,101.7 C584.2,97.3 583.6,94.1 583.3,89.4 C582.8,80.1 584.7,77.8 591.9,79.1 C599.9,80.6 606.9,84.1 613.2,89.7 C617.4,93.4 618.9,95.2 621.1,98.7 C625.8,106.3 625.1,105.8 636.2,111.7 C643.9,115.8 646.9,118.3 658.1,129.6 C668.2,139.8 670.0,142.1 671.5,146.3 C672.2,148.1 672.2,148.8 672.1,151.5 C672.0,154.4 671.8,155.0 670.9,156.9 C669.4,159.9 666.5,162.7 663.7,164.1 C661.6,165.1 661.1,165.2 657.9,165.3 C654.7,165.4 653.7,165.3 647.0,163.9 C633.0,161.1 627.7,160.8 621.4,162.7 C619.1,163.4 615.4,165.0 613.3,166.4 C612.4,167.0 611.2,167.7 610.7,168.1 C607.7,169.8 603.7,173.3 596.2,180.4 C587.0,189.2 580.8,193.5 570.3,198.3 C567.7,199.5 565.3,200.8 564.7,201.4 C563.3,202.7 562.0,206.0 560.9,210.8 C559.8,215.5 557.5,223.4 556.2,226.7 C554.7,230.3 551.9,235.9 550.3,238.1 C545.9,244.2 540.1,248.7 534.7,250.2 C528.9,251.8 519.4,250.7 513.8,247.8 C510.5,246.1 509.7,243.3 511.7,241.2 C512.3,240.6 513.2,240.1 513.6,240.1 C514.0,240.1 517.2,240.1 520.8,240.0 C526.2,239.9 527.5,239.8 529.6,239.2 C534.2,237.9 537.1,235.4 541.0,229.7 C544.1,225.1 545.8,220.3 549.5,205.9 C551.6,197.9 553.1,194.5 556.1,191.7 C558.1,189.8 559.6,189.0 564.6,186.8 C571.5,183.9 576.2,181.2 579.7,178.5 C584.1,174.9 586.3,173.0 591.9,167.8 C602.1,158.1 607.2,154.6 614.6,151.7 C620.4,149.5 622.4,149.1 630.1,149.2 C637.5,149.2 637.4,149.1 648.6,151.4 C655.6,152.8 657.1,152.8 658.4,151.6 C659.5,150.5 659.6,149.3 658.7,147.8 C657.8,146.3 645.6,133.7 642.4,131.0 C636.3,125.7 634.4,124.4 625.6,119.7 C617.4,115.2 616.4,114.3 612.1,106.6 C609.1,101.2 605.5,97.7 599.6,94.5 C598.6,93.9 597.5,93.4 597.1,93.3 L596.3,93.0 L596.5,95.2 C596.8,99.1 599.8,106.4 603.0,111.4 C603.9,112.7 605.8,115.2 607.3,116.8 C611.0,121.0 611.5,122.4 610.2,125.1 C609.3,126.9 604.9,131.1 600.6,134.1 C596.6,137.0 589.4,140.5 585.3,141.7 C574.4,144.9 563.5,143.5 551.4,137.6 C549.2,136.5 547.0,135.5 546.5,135.3 C546.0,135.1 544.8,134.3 543.9,133.6 C535.8,127.1 527.7,121.8 519.6,117.7 C518.3,117.0 516.5,116.1 515.6,115.6 C510.7,113.0 503.4,110.0 498.0,108.5 C482.2,103.9 462.8,104.3 447.2,109.4 C442.8,110.9 435.7,113.8 430.7,116.4 C427.6,117.9 425.9,118.9 419.6,122.9 C419.0,123.3 418.5,123.7 418.5,123.7 C418.6,123.8 419.9,123.7 421.5,123.5 C423.1,123.4 427.9,123.3 432.1,123.4 C438.3,123.5 440.5,123.7 442.9,124.2 C449.2,125.6 454.5,127.5 457.6,129.6 C458.7,130.4 459.7,131.0 459.8,131.0 C460.0,131.0 463.2,133.3 464.7,134.5 C466.7,136.2 472.6,142.2 475.0,145.1 C477.6,148.2 479.9,151.7 482.2,156.0 C488.7,168.4 491.0,185.1 488.3,200.3 C487.6,204.0 485.7,211.2 484.5,214.2 C483.9,215.9 483.6,217.5 483.5,218.7 C483.5,219.8 483.0,222.3 482.5,224.2 C481.6,227.5 481.4,228.0 479.2,231.0 C476.2,235.3 464.4,247.3 461.7,248.8 C459.9,249.8 459.9,249.8 459.4,249.3 C459.0,248.7 458.9,248.7 457.3,249.5 C454.8,250.8 449.3,255.1 449.5,255.7 C449.8,256.4 448.6,257.4 444.8,259.7 C437.8,263.9 429.6,268.2 422.0,271.6 C419.1,272.9 403.3,280.4 399.5,282.4 C392.1,286.1 387.2,290.1 384.5,294.6 C383.0,297.1 380.5,302.9 377.4,311.0 C372.1,324.9 367.4,334.4 361.5,343.2 C356.1,351.2 348.7,358.8 341.4,363.7 C339.2,365.2 331.9,368.8 329.5,369.6 C327.2,370.4 325.6,370.5 324.3,370.0 Z M461.4,366.6 C457.2,366.1 453.8,364.5 450.4,361.3 C447.1,358.1 445.4,355.5 444.5,351.9 C444.0,350.2 443.8,349.8 443.2,349.6 C442.7,349.5 442.4,349.2 442.4,348.9 C442.4,348.6 442.5,347.9 442.5,347.4 C442.5,346.9 442.8,346.2 443.2,345.8 C444.1,344.7 444.1,341.6 443.2,340.8 C442.5,340.2 442.5,340.2 444.4,336.1 C448.0,328.4 449.4,326.2 452.2,324.3 C455.2,322.1 457.8,321.3 462.0,321.1 C463.9,321.0 466.4,321.1 467.4,321.3 C469.6,321.7 473.0,323.2 474.6,324.4 C475.5,325.2 475.6,325.4 475.6,326.9 C475.6,327.7 475.5,328.7 475.3,329.1 C475.0,329.7 473.6,329.9 473.2,329.4 C472.8,328.7 468.8,326.7 467.0,326.3 C464.6,325.7 462.9,325.7 460.2,326.4 C458.6,326.7 457.6,327.1 457.2,327.7 C456.8,328.1 456.2,328.4 456.0,328.3 C455.3,328.0 452.3,331.3 451.3,333.5 C450.9,334.5 450.5,335.8 450.5,336.4 L450.4,337.6 L459.7,337.6 L469.0,337.6 L469.6,338.3 C470.3,339.3 470.3,339.7 469.5,340.7 L468.9,341.5 L461.0,341.6 C456.7,341.7 453.1,341.8 453.0,342.0 C452.9,342.1 452.9,343.0 453.0,343.9 L453.2,345.7 L460.0,345.9 C463.7,346.0 467.0,346.3 467.3,346.4 C468.2,346.9 468.1,348.2 467.1,349.2 L466.3,350.0 L458.5,349.9 C454.2,349.8 450.5,349.6 450.1,349.5 C449.6,349.2 449.5,349.3 449.7,351.2 C449.9,352.9 450.1,353.6 451.4,355.4 C453.2,358.1 454.5,359.2 457.8,360.8 C460.0,361.8 460.7,362.0 463.3,362.1 C466.8,362.2 468.7,361.6 472.0,359.2 C473.2,358.4 474.3,357.6 474.4,357.6 C475.0,357.6 476.0,359.4 476.0,360.4 C476.0,361.7 474.3,363.7 472.3,364.9 C469.8,366.3 465.3,367.1 461.4,366.6 Z M534.9,359.1 C539.1,357.1 540.2,352.0 537.1,349.1 C536.0,348.1 533.4,346.7 532.5,346.7 C531.9,346.7 531.8,346.9 531.8,353.3 L531.8,360.0 L532.8,359.8 C533.4,359.7 534.3,359.3 534.9,359.1 Z M315.1,350.4 C313.8,350.1 312.2,348.7 311.6,347.5 C311.4,346.9 311.2,345.8 311.2,345.1 C311.2,342.5 312.5,341.1 317.0,338.9 C322.9,335.9 327.6,332.1 332.8,325.9 C340.3,317.0 345.3,306.0 351.5,284.4 C355.2,271.6 357.9,265.1 361.1,261.3 C364.5,257.1 367.4,255.4 376.9,251.9 C389.7,247.1 397.8,242.6 404.4,236.5 C410.4,231.1 413.3,225.2 413.3,218.9 C413.3,214.0 412.1,210.9 406.9,203.3 C401.6,195.4 400.8,193.8 400.8,191.2 C400.8,187.2 404.5,183.9 407.9,184.9 C409.6,185.4 410.7,186.6 415.4,193.6 C421.7,203.1 423.9,207.2 425.3,212.0 C425.8,214.1 426.0,215.5 426.0,219.3 C426.0,223.3 425.8,224.4 425.1,227.1 C424.2,230.5 421.9,235.3 419.7,238.6 C416.6,243.2 409.0,250.2 402.9,253.9 C397.9,257.0 394.6,258.6 385.8,262.1 C375.5,266.2 374.3,266.8 371.9,268.9 C369.1,271.3 367.4,274.0 366.0,278.4 C365.3,280.4 363.1,287.2 361.0,293.6 C356.6,307.1 355.5,310.0 353.3,314.6 C350.4,320.8 345.2,329.0 341.1,334.0 C336.7,339.4 328.8,345.9 323.9,348.4 C320.9,349.9 317.1,350.7 315.1,350.4 Z M576.5,346.6 C575.2,345.9 574.9,345.0 574.7,341.3 C574.4,335.9 572.1,327.3 569.4,322.0 C567.0,317.3 564.4,313.7 559.9,309.1 C552.9,301.9 541.7,296.8 530.8,295.8 C529.2,295.7 528.5,295.5 527.8,294.9 C526.8,293.9 526.8,292.6 527.7,291.4 C528.3,290.6 528.5,290.5 531.2,290.5 C537.9,290.5 546.3,292.9 552.9,296.7 C558.9,300.1 567.0,307.6 570.5,312.8 C576.7,322.2 580.3,333.3 580.3,343.4 C580.3,345.2 580.2,345.5 579.3,346.2 C578.2,347.1 577.6,347.2 576.5,346.6 Z M587.4,345.7 C585.7,344.0 586.3,341.4 588.7,340.5 C590.2,339.9 591.2,340.2 592.4,341.5 C593.5,342.7 593.5,344.4 592.2,345.7 C591.5,346.6 591.1,346.7 589.9,346.7 C588.7,346.7 588.2,346.5 587.4,345.7 Z M440.1,340.2 C440.0,339.9 440.0,339.3 440.0,338.8 C440.1,338.1 440.3,337.9 441.0,337.8 C442.1,337.7 442.3,338.2 442.0,339.5 C441.7,340.6 440.4,341.0 440.1,340.2 Z M527.7,333.6 C527.7,330.1 527.5,327.7 527.3,327.6 C526.9,327.4 524.2,328.6 523.2,329.5 C522.1,330.5 521.6,332.0 521.6,333.8 C521.6,335.1 521.7,335.7 522.4,336.4 C523.2,337.4 526.4,339.3 527.3,339.3 C527.6,339.3 527.7,338.0 527.7,333.6 Z M585.6,328.4 C583.6,327.6 582.8,324.1 584.3,322.7 C585.9,321.2 588.3,321.2 589.6,322.7 C590.1,323.4 590.4,325.5 590.2,326.7 C589.8,328.2 587.3,329.1 585.6,328.4 Z M577.5,311.4 C575.2,310.7 574.0,307.1 575.4,305.2 C576.7,303.5 579.3,303.2 580.9,304.5 C584.2,307.3 581.6,312.5 577.5,311.4 Z M563.6,297.1 C561.9,296.4 560.6,294.2 560.9,292.3 C561.6,287.3 569.1,287.9 569.1,293.1 C569.1,294.7 568.4,296.0 567.1,296.8 C566.3,297.3 564.6,297.4 563.6,297.1 Z M547.3,287.6 C545.8,287.2 545.0,286.5 544.3,284.9 C543.3,282.7 544.3,280.4 546.5,279.4 C548.9,278.4 551.0,279.3 552.1,281.7 C553.2,284.1 552.3,286.6 549.9,287.5 C548.7,288.0 548.8,288.0 547.3,287.6 Z M527.9,283.8 C526.4,282.9 525.7,281.6 525.7,279.8 C525.7,278.6 525.9,278.1 526.8,277.2 C527.7,276.1 528.1,276.0 529.6,275.9 C531.7,275.7 533.2,276.5 533.9,278.2 C535.7,282.3 531.7,285.9 527.9,283.8 Z M275.0,235.2 C269.0,234.5 259.3,232.2 253.9,230.3 C247.8,228.1 238.6,223.5 234.0,220.3 C226.3,214.9 219.1,208.3 217.9,205.2 C216.7,202.6 217.9,200.1 220.6,199.8 C221.8,199.6 222.1,199.7 223.8,200.8 C224.8,201.5 226.9,203.1 228.5,204.4 C235.3,209.7 237.5,211.2 243.6,214.2 C253.5,219.2 260.4,221.3 271.4,223.0 C276.3,223.7 282.9,224.1 285.5,223.9 C297.8,222.9 308.3,220.5 319.7,216.0 C325.2,213.9 341.0,205.8 345.7,202.8 C346.3,202.4 348.1,201.2 349.9,200.1 C354.1,197.3 364.1,190.0 365.0,188.9 C365.2,188.7 366.2,187.9 367.2,187.0 C368.3,186.1 370.2,184.5 371.5,183.3 C378.4,177.2 381.1,174.9 382.7,173.7 C383.5,173.0 385.5,171.5 391.2,166.9 C394.9,164.0 401.4,159.7 405.5,157.6 C409.6,155.5 417.2,153.0 421.7,152.3 C428.9,151.2 437.3,152.1 442.5,154.5 C446.6,156.3 447.7,157.7 447.7,161.0 C447.7,163.7 446.5,165.8 444.7,166.4 C442.2,167.3 439.8,167.4 436.3,166.5 C429.6,164.8 427.7,164.7 422.5,165.5 C418.2,166.2 414.7,167.5 409.3,170.4 C402.0,174.3 395.1,179.7 376.0,196.1 C369.9,201.4 361.2,207.9 356.8,210.7 C355.1,211.7 352.1,213.6 350.1,214.9 C343.2,219.2 328.1,226.6 321.2,229.0 C313.6,231.7 306.4,233.5 298.5,234.7 C293.1,235.6 280.3,235.8 275.0,235.2 Z M534.8,225.8 C534.6,225.1 534.2,223.2 533.9,221.5 C533.7,219.8 532.9,216.3 532.3,213.7 C529.6,202.2 529.2,200.1 529.0,196.5 C528.6,189.2 529.5,183.2 531.5,179.1 C534.3,173.4 539.3,168.0 544.6,164.6 C546.4,163.5 549.5,162.6 550.8,162.9 C552.4,163.2 554.3,164.7 555.2,166.3 C557.1,169.9 555.2,173.5 549.5,177.0 C545.7,179.4 542.9,182.4 541.3,186.1 C539.7,189.7 539.7,189.9 539.7,202.6 C539.7,213.6 539.6,214.9 539.0,218.1 C538.3,221.9 537.4,224.6 536.3,226.1 C535.4,227.3 535.2,227.2 534.8,225.8 Z M507.0,204.1 C505.1,203.5 503.5,202.3 502.4,200.4 C500.5,197.1 501.6,191.6 504.5,189.6 C508.1,187.1 511.5,187.3 514.6,190.0 C515.5,190.8 516.5,192.1 516.8,192.8 C517.5,194.3 517.6,197.2 517.0,199.2 C516.4,201.1 514.0,203.4 511.9,204.0 C509.9,204.6 509.1,204.6 507.0,204.1 Z M208.7,192.2 C205.8,191.2 204.2,189.0 204.0,185.8 C203.8,183.1 204.5,181.2 206.2,179.7 C209.6,176.6 214.5,177.6 217.0,181.9 C218.1,183.8 218.2,186.7 217.2,188.7 C215.6,191.8 211.9,193.3 208.7,192.2 Z M452.0,184.9 C448.0,182.9 446.6,179.4 447.9,175.0 C448.5,172.9 450.1,171.1 452.1,170.1 C454.8,168.9 458.7,169.7 461.0,172.0 C462.7,173.7 463.3,175.2 463.3,178.0 C463.3,180.3 463.2,180.8 462.4,182.1 C461.9,182.9 460.8,184.1 460.0,184.7 C458.7,185.6 458.1,185.7 456.2,185.8 C454.2,185.9 453.7,185.8 452.0,184.9 Z M195.7,171.0 C194.3,170.4 192.7,168.6 192.5,167.3 C192.0,164.8 193.1,162.0 195.1,160.7 C195.5,160.4 196.6,160.1 197.6,160.0 C200.8,159.6 203.1,161.6 203.5,164.9 C203.7,166.7 203.2,168.6 202.4,169.6 C201.0,171.2 197.7,171.9 195.7,171.0 Z M500.2,160.2 C498.8,159.8 497.0,158.1 495.9,156.4 C494.7,154.3 494.7,150.8 495.9,148.5 C497.4,145.5 499.7,144.1 503.1,144.1 C506.9,144.1 509.3,146.0 510.7,149.9 C512.1,153.7 510.3,157.7 506.4,159.8 C505.2,160.3 501.5,160.6 500.2,160.2 Z" fill="#FED65B" fill-rule="evenodd"/>
  </g>
</svg>